<svg width="44" height="43" fill="none" xmlns="http://www.w3.org/2000/svg"><path d="M31.44 14.704l-2.013-3.012-3.048 1.957 2.012 3.012 3.049-1.957zM26.506 23.026l-2.011-3.008-1.827 1.173 2.01 3.008 1.828-1.173zM35.125 12.334l-2.013-3.012-3.048 1.957 2.013 3.011 3.048-1.956zM24.102 19.42l-2.01-3.009-1.828 1.173 2.011 3.009 1.827-1.173zM15.489 9.083a1.482 1.482 0 002.024.421 1.417 1.417 0 00.414-1.987 1.482 1.482 0 00-2.024-.422 1.417 1.417 0 00-.415 1.988zM32.722 8.734l-2.013-3.011-3.048 1.957 2.013 3.01 3.048-1.956zM32.6 24.265l-2.013-3.011-3.048 1.957 2.013 3.011 3.048-1.957zM33.843 18.312l-2.013-3.011-3.048 1.957 2.012 3.011 3.049-1.957zM28.914 26.634l-2.01-3.008-1.828 1.173 2.011 3.009 1.827-1.174zM30.191 20.659l-2.013-3.011-3.048 1.956 2.013 3.012 3.048-1.957zM27.79 17.052l-2.013-3.011-3.048 1.957 2.013 3.011 3.048-1.957zM37.032 26.971a2.222 2.222 0 003.036.633 2.125 2.125 0 00.621-2.98 2.222 2.222 0 00-3.036-.633 2.125 2.125 0 00-.621 2.98z" fill="#FFE7C0"/><path fill-rule="evenodd" clip-rule="evenodd" d="M24.258 24.903L21.851 21.3l-2.409-3.607-2.407-3.605-.6-.9-2.125 1.366 10.833 16.223 2.125-1.366-.603-.902-2.407-3.605z" fill="#FFE7C0"/><path d="M24.54 31.157L13.712 14.94l-1.214.78 10.828 16.219 1.214-.78z" fill="#FFE7C0"/><path fill-rule="evenodd" clip-rule="evenodd" d="M4.912 20.571a2.219 2.219 0 00-.648 3.11l2.428 3.633 8.69 1.811c.2.041.327.231.286.427a.362.362 0 01-.432.277l-7.973-1.661L9.357 31.3l11.334 2.362 2.007-1.288L11.84 16.127l-6.926 4.447-.002-.003z" fill="#FFE7C0"/><path d="M29.036 11.104l-2.013-3.011-3.048 1.957 2.013 3.011 3.048-1.957zM21.699 15.82l-2.011-3.008-1.827 1.173 2.01 3.008L21.7 15.82zM25.386 13.453l-2.012-3.012-3.049 1.957 2.013 3.012 3.048-1.957z" fill="#FFE7C0"/><path fill-rule="evenodd" clip-rule="evenodd" d="M12.595 36.15a2.322 2.322 0 003.172.66l4.06-2.606-9.913-2.065 2.681 4.01z" fill="#FFE7C0"/></svg>