<svg width="368" height="273" fill="none" xmlns="http://www.w3.org/2000/svg"><g clip-path="url(#clip0)"><path d="M359.1 56.199c-.4 4.9-8.4 8-9.7 13v-2.9c1.2-4.6 8.1-7.6 9.5-11.9.1-.3.1-.6.2-.9v2.7z" fill="url(#paint0_linear)"/><path d="M356 47.1a7.801 7.801 0 01-5.4 1.3c-1-.2-1.4-.5-1.5-.9-.1-.4 3.7-2.7 6.9-.4z" fill="url(#paint1_linear)"/><path d="M355.3 37.8a7 7 0 01-4.4.7c-.6-.1-.9-.3-.9-.5 0-.7 2.7-1.4 5.3-.2z" fill="url(#paint2_linear)"/><path d="M358.699 42.6c.023.237-.012.477-.1.7 0 .3-.1.5-.1.7l-.6-1.2a6.5 6.5 0 00-2.6-2.2l2-1.4.6.7a5.12 5.12 0 01.7 1.7c.093.324.127.663.1 1z" fill="url(#paint3_linear)"/><path d="M359.3 32.6a3.98 3.98 0 01-.3 1.5 5.197 5.197 0 00-1.6-1.8v-2.9a4.095 4.095 0 011.9 3.2z" fill="url(#paint4_linear)"/><path d="M359.1 53.5c-.1.3-.1.6-.2.9-.1.3-.1-.3-.2-.4a9.002 9.002 0 00-2.7-4 9.29 9.29 0 001.5-1.3 8.996 8.996 0 011.2 2.4c.165.422.299.857.4 1.3v1.1z" fill="url(#paint5_linear)"/><path d="M359.3 32.6v2.9a5.494 5.494 0 01-2 3.8l-2 1.4a7 7 0 01-4.4.7c-.6-.1-.9-.3-.9-.5V38c0 .2.3.4.9.5a7 7 0 004.4-.7 8.3 8.3 0 003.7-3.7 4 4 0 00.3-1.5z" fill="url(#paint6_linear)"/><path d="M358.7 42.7v3a4.908 4.908 0 01-1.2 3A9.333 9.333 0 01356 50a8.401 8.401 0 01-5.4 1.3c-1-.2-1.4-.5-1.5-.9v-2.9c.1.4.5.7 1.5.9a7.8 7.8 0 005.4-1.3 6.102 6.102 0 002.5-3c0-.2.1-.4.1-.7.088-.223.123-.463.1-.7z" fill="url(#paint7_linear)"/><path d="M70.6 129.299c.4 5.1 8.7 8.3 10.1 13.5v-3c-1.3-4.8-8.5-7.9-9.9-12.3-.1-.4-.1-.7-.2-1v2.8z" fill="url(#paint8_linear)"/><path d="M73.8 119.899a8.1 8.1 0 005.7 1.3c.9-.1 1.4-.5 1.4-.9s-3.8-2.8-7.1-.4z" fill="url(#paint9_linear)"/><path d="M74.6 110.199a6.6 6.6 0 004.5.8c.6-.1.9-.3.9-.5 0-.7-2.8-1.5-5.4-.3z" fill="url(#paint10_linear)"/><path d="M71 115.199v.2c-.016.238.018.476.1.7.02.244.089.482.2.7.135-.461.337-.899.6-1.3a7.193 7.193 0 012.7-2.3 6.01 6.01 0 01-2.1-1.4l-.6.7a7.104 7.104 0 00-.8 1.8 2.795 2.795 0 00-.1.9z" fill="url(#paint11_linear)"/><path d="M70.4 104.899c.003.514.105 1.024.3 1.5a5.69 5.69 0 011.7-1.8v-3a3.994 3.994 0 00-2 3.3z" fill="url(#paint12_linear)"/><path d="M70.6 126.499c.1.3.1.6.2 1l.2-.4a9.1 9.1 0 012.8-4.2 6.424 6.424 0 01-1.5-1.3 7.299 7.299 0 00-1.3 2.5 6.501 6.501 0 00-.4 1.3v1.1z" fill="url(#paint13_linear)"/><path d="M70.4 104.898v3a5.295 5.295 0 002.1 3.9 5.983 5.983 0 002.1 1.4 6.594 6.594 0 004.5.8c.6-.1.9-.3.9-.5v-3c0 .2-.3.4-.9.5a6.594 6.594 0 01-4.5-.8 7.996 7.996 0 01-3.9-3.8 3.998 3.998 0 01-.3-1.5z" fill="url(#paint14_linear)"/><path d="M71 115.398v3c.04 1.188.5 2.322 1.3 3.2.43.509.935.948 1.5 1.3a8.096 8.096 0 005.7 1.3c.9-.1 1.4-.5 1.4-.9v-3c0 .4-.5.8-1.4.9a8.096 8.096 0 01-5.7-1.3 6.195 6.195 0 01-2.5-3.1 1.898 1.898 0 01-.2-.7 1.696 1.696 0 01-.1-.7z" fill="url(#paint15_linear)"/><path d="M9.5 237.999v3.8c0 1.4-9.1.5-9.4 4.2v-3.3c-.3-2.7 3.6-3.2 6.4-3.7 2.8-.5 3-.4 3-1z" fill="url(#paint16_linear)"/><path d="M9.501 238c0 .6-1.3.8-3 1-2.5-1.7-5.8-3.9-5.8-5.6v-.2c0-.6.5-1.1 1.1-1.6 2.4 2.5 7.7 5.2 7.7 6.4z" fill="url(#paint17_linear)"/><path d="M8.701 222.999v3.7c0 2.5-4.7 3.4-6.9 4.9-.6.5-1.1 1-1.1 1.6v-3.7c.2-2.2 5.1-3 7.2-4.9a2.094 2.094 0 00.8-1.6z" fill="url(#paint18_linear)"/><path d="M8.7 222.999a2.1 2.1 0 01-.8 1.6c-1.7-2.1-5.5-4.1-6.2-8.9a7.598 7.598 0 01-.1-1.5c.017-.604.084-1.206.2-1.8 1 5.9 6.9 7.3 6.9 10.6z" fill="url(#paint19_linear)"/><path d="M9.5 199.699v3.8s-6.6 2.8-7.7 8.9a11.013 11.013 0 00-.2 1.8v-3.8c0-7.3 7.9-10.7 7.9-10.7z" fill="url(#paint20_linear)"/><path d="M108.9 16.099v4.6a7.538 7.538 0 00-.4-1.6c-1.3-4.1-6.4-6.6-11.9-8.4v-4.6c6.2 2 11.9 4.9 12.3 10z" fill="url(#paint21_linear)"/><path d="M101.6 54.499a2.992 2.992 0 01-.5-1.6c-.088-.92.05-1.846.4-2.7 1-3.2 3.9-5.3 5.2-7.6.393.6.633 1.286.7 2 .2 3.4-4.3 5.8-5.8 9.9z" fill="url(#paint22_linear)"/><path d="M107.399 26.399c-1.3 2.6-3.7 4.8-5 7.3a3.403 3.403 0 01-.8-1.7.904.904 0 01.1-.5 4.902 4.902 0 01.3-1.5c1-2.9 4-5.3 5.4-8.2.46-.86.829-1.764 1.1-2.7.192.517.326 1.053.4 1.6a10.598 10.598 0 01-1.5 5.7z" fill="url(#paint23_linear)"/><path d="M107.4 39.999v4.6a4.41 4.41 0 00-.7-2 6.418 6.418 0 00-1.3-1.7c-1.9-2-3.7-2.5-3.8-4.3V31.999c.101.63.379 1.22.8 1.7.7.7 1.8 1.4 3 2.6a6.506 6.506 0 012 3.7z" fill="url(#paint24_linear)"/><path d="M110.1 63.698v4.6c-1.7-4.6-3.4-4.3-6.4-6.9-3-2.6-2.8-2.9-2.6-4.9v-3.6a3 3 0 00.5 1.6 10.42 10.42 0 002.1 2.3c3 2.6 4.7 2.3 6.4 6.9z" fill="url(#paint25_linear)"/><path d="M199.8 2.2v3c-3.7 1.1-13.2 5-15.1 9.5a4.02 4.02 0 00-.3 1.5v-3c0-5.1 11.2-9.7 15.4-11z" fill="url(#paint26_linear)"/><path d="M197.501 62.999v2.9c-4.9-1.5-6.9-3.8-6.8-6.3.004-.45.107-.894.3-1.3.6 1.8 2.7 3.5 6.5 4.7z" fill="url(#paint27_linear)"/><path d="M201 25.8a2.396 2.396 0 01-.5 1.4c-2.9-5.4-13.9-5.1-15.8-9.7a3.11 3.11 0 01-.3-1.3 4.02 4.02 0 01.3-1.5c2.2 4.6 13.9 4.1 16.1 10.2.115.287.182.59.2.9z" fill="url(#paint28_linear)"/><path d="M200.9 45.1a3.424 3.424 0 01-.6 1.2c-.1-.1-.2-.2-.2-.3-2.1-2.3-6.8-3.3-8.9-5.6a4.496 4.496 0 01-1.1-2.2V38c.075-.495.245-.97.5-1.4l.6.8c2.1 2.3 6.8 3.3 8.9 5.6.379.43.653.944.8 1.5v.6z" fill="url(#paint29_linear)"/><path d="M195.301 52.7c-2.2 1.7-3.8 3.6-4.3 5.5a3.11 3.11 0 00-.3 1.3v-3.3c.2-2.1 1.9-4.4 4.5-6.5 2.6-2.1 3.9-2.3 5-3.4a3.39 3.39 0 00.6-1.2v2.4c.5 2.2-3 3.3-5.5 5.2z" fill="url(#paint30_linear)"/><path d="M201 25.799V28.899c-.3 3.3-8.2 4.9-10.4 7.7a3.93 3.93 0 00-.5 1.4v-2.8c-.1-3.5 8.3-5 10.4-8 .311-.402.486-.892.5-1.4z" fill="url(#paint31_linear)"/><path d="M315.6 176.199v-2.4c2.9-.9 10.4-3.9 11.8-7.4.191-.371.294-.782.3-1.2v2.3c0 4-8.8 7.7-12.1 8.7z" fill="url(#paint32_linear)"/><path d="M317.4 128.399v-2.4c3.8 1.2 5.4 3.1 5.3 5.1a3.56 3.56 0 01-.2 1c-.5-1.5-2.1-2.8-5.1-3.7z" fill="url(#paint33_linear)"/><path d="M314.7 157.599c.006-.386.11-.764.3-1.1 2.3 4.3 10.9 4 12.5 7.6.115.356.182.726.2 1.1a2.694 2.694 0 01-.3 1.2c-1.7-3.7-10.9-3.3-12.6-8.1a1.507 1.507 0 01-.1-.7z" fill="url(#paint34_linear)"/><path d="M314.699 142.399c.085-.338.258-.649.5-.9 0 .053.021.104.059.141a.197.197 0 00.141.059c1.6 1.9 5.3 2.6 6.9 4.4.499.479.816 1.114.9 1.8a2.095 2.095 0 01-.4 1.1l-.5-.6c-1.6-1.8-5.3-2.6-6.9-4.4a4.017 4.017 0 01-.7-1.2v-.4z" fill="url(#paint35_linear)"/><path d="M319.1 136.499a8.9 8.9 0 003.4-4.4c.114-.323.181-.659.2-1v2.6c-.2 1.7-1.5 3.5-3.6 5.1-2.1 1.6-3.1 1.8-3.9 2.7a1.997 1.997 0 00-.5.9v-1.9c-.3-1.7 2.5-2.6 4.4-4z" fill="url(#paint36_linear)"/><path d="M314.699 157.599v-2.5c.2-2.6 6.4-3.8 8.1-6 .235-.321.374-.703.4-1.1v2.2c.1 2.8-6.5 4-8.2 6.3a2.297 2.297 0 00-.3 1.1z" fill="url(#paint37_linear)"/><path d="M295.8-.001v4.6s-1.5 6.1-7 15h-.1a6.626 6.626 0 00-.8 2.2v-4.2c0-.896.28-1.77.8-2.5 5.6-8.9 7.1-15.1 7.1-15.1z" fill="url(#paint38_linear)"/><path d="M297.9 57.799v4.7c-.1 1.7-1.4 3-3 4.6v-4.6c.849-.79 1.62-1.661 2.3-2.6.427-.62.669-1.348.7-2.1z" fill="url(#paint39_linear)"/><path d="M297.9 57.8a4 4 0 01-.7 2.1 14.93 14.93 0 00-1.8-2.4c-2.1-2.5-4.9-3.9-4.9-7.2v-.2a7.507 7.507 0 01.4-2.4c.9 2 2.9 3.2 4.5 5.1 1.6 1.9 2.5 3.7 2.5 5z" fill="url(#paint40_linear)"/><path d="M299.3 27.599v4.8c-.1 2.6-2.7 5.8-5.1 9.3a24.888 24.888 0 00-3.3 6 7.507 7.507 0 00-.4 2.4v-4.6c0-2 1-4.6 3.7-8.4 2.7-3.8 3.5-4.8 4.4-6.9a5.4 5.4 0 00.7-2.6z" fill="url(#paint41_linear)"/><path d="M299.3 27.6a5.39 5.39 0 01-.7 2.6c-2.4-2.7-10.5-4-10.7-8v-.3c.134-.776.405-1.521.8-2.2h.1c2.5 2.9 9.7 4.2 10.4 7.1.072.26.106.53.1.8z" fill="url(#paint42_linear)"/><path d="M357.4 207.199v3.2a3.81 3.81 0 00.5 1.9c1.2 2.4 7.2 2.7 10.1 4.8.346.211.65.482.9.8a2 2 0 01.6 1.5v-3.2c0-.8-.5-1.5-1.5-2.3-2.9-2-8.9-2.4-10.1-4.8l-.2-.3a5.02 5.02 0 01-.3-1.6z" fill="url(#paint43_linear)"/><path d="M359.9 269.699v3.1a3.802 3.802 0 001.2-2.9 9.9 9.9 0 00-.2-1.6 4.384 4.384 0 01-1 1.4z" fill="url(#paint44_linear)"/><path d="M357.4 207.099a5.02 5.02 0 00.3 1.6c1.4-2.7 6.1-4.5 7.8-8.1v-3.1c-2 4.2-8.1 6-8.1 9.6z" fill="url(#paint45_linear)"/><path d="M356.2 254.699c.025.439.092.874.2 1.3 1-2.7 4.9-3.4 7.3-5.9a6.497 6.497 0 002.1-4.2v-.3a6.987 6.987 0 00-.3-1.4 8.19 8.19 0 01-1.8 2.8c-2.9 2.9-7.9 3.4-7.5 7.7z" fill="url(#paint46_linear)"/><path d="M356.2 257.299a4.908 4.908 0 00.2 2c.7 2.3 3.6 5.7 4.5 8.9.109.527.176 1.062.2 1.6v-3.1c0-3.6-3.9-7.8-4.7-10.6a6.88 6.88 0 01-.2-1.3v2.5z" fill="url(#paint47_linear)"/><path d="M353.801 230.899V234.499c.4 2.7 3.9 3.3 5.9 4.3 2 1 5 3.1 5.8 5.4.147.456.248.925.3 1.4v-3.1c-.1-3-2.9-5.5-6.1-6.9-1.7-.8-4.5-1.4-5.5-3.2a2.986 2.986 0 01-.4-1v-.5z" fill="url(#paint48_linear)"/><path d="M353.801 230.899v.5c.072.355.207.694.4 1 .9-1.9 3.2-3.5 4.7-4.4 3.5-2.1 10.6-5.5 10.6-8.6a2 2 0 00-.6-1.5c-1.8 2.6-7.1 5.2-10 7-2.9 1.8-5.1 3.3-5.1 6z" fill="url(#paint49_linear)"/><path d="M13.8 25.398v2.7a3.998 3.998 0 01-.6 1.6c-1.2 2.1-6.9 2.2-9.8 3.8l-.9.7a1.6 1.6 0 00-.5 1.2v-2.7c0-.6.5-1.3 1.5-1.9 2.8-1.7 8.6-1.7 9.8-3.8 0-.1.1-.2.1-.3a2.2 2.2 0 00.4-1.3z" fill="url(#paint50_linear)"/><path d="M10.202 79.1v2.7a3.6 3.6 0 01-1.1-2.6 4 4 0 01.3-1.5 2.8 2.8 0 00.8 1.4z" fill="url(#paint51_linear)"/><path d="M13.801 25.299a2.2 2.2 0 01-.4 1.3c-1.2-2.3-5.7-4.1-7.2-7.2v-2.6c1.8 3.7 7.6 5.4 7.6 8.5z" fill="url(#paint52_linear)"/><path d="M14.001 66.299a5.197 5.197 0 01-.2 1.1c-.9-2.4-4.6-3.1-6.9-5.3a5.299 5.299 0 01-1.9-3.7v-.2a2.1 2.1 0 01.3-1.2 6.3 6.3 0 001.6 2.4c2.8 2.6 7.5 3.2 7.1 6.9z" fill="url(#paint53_linear)"/><path d="M14.002 68.498a5.501 5.501 0 01-.3 1.7c-.7 2-3.5 4.9-4.4 7.5a4 4 0 00-.3 1.5v-2.8c.1-3 3.9-6.5 4.7-8.9.106-.358.173-.727.2-1.1l.1 2.1z" fill="url(#paint54_linear)"/><path d="M16.801 45.898v3.1c-.4 2.3-3.8 2.7-5.7 3.5-1.9.8-5.1 2.5-5.8 4.5a2.1 2.1 0 00-.3 1.2v-2.7c.1-2.6 2.8-4.7 5.9-5.7 3.1-1 4.4-1.1 5.4-2.6.174-.28.309-.583.4-.9l.1-.4z" fill="url(#paint55_linear)"/><path d="M16.801 45.9v.4c-.091.316-.226.619-.4.9-.8-1.7-3-3.1-4.4-3.9-3.4-2-10.1-5.1-10-7.9a1.6 1.6 0 01.5-1.2c1.7 2.3 6.7 4.7 9.5 6.3 2.8 1.6 4.8 3.1 4.8 5.4z" fill="url(#paint56_linear)"/></g><defs><linearGradient id="paint0_linear" x1="349.36" y1="61.339" x2="359.09" y2="61.339" gradientUnits="userSpaceOnUse"><stop stop-color="#4D8EFF"/><stop offset=".43" stop-color="#3F76FF"/><stop offset="1" stop-color="#2850FF"/></linearGradient><linearGradient id="paint1_linear" x1="2184.74" y1="115.794" x2="2326.56" y2="172.588" gradientUnits="userSpaceOnUse"><stop stop-color="#4D8EFF"/><stop offset=".43" stop-color="#3F76FF"/><stop offset="1" stop-color="#2850FF"/></linearGradient><linearGradient id="paint2_linear" x1="1773.58" y1="66.925" x2="1853.21" y2="94.269" gradientUnits="userSpaceOnUse"><stop stop-color="#4D8EFF"/><stop offset=".43" stop-color="#3F76FF"/><stop offset="1" stop-color="#2850FF"/></linearGradient><linearGradient id="paint3_linear" x1="1269.83" y1="153.487" x2="1327.8" y2="157.354" gradientUnits="userSpaceOnUse"><stop stop-color="#4D8EFF"/><stop offset=".43" stop-color="#3F76FF"/><stop offset="1" stop-color="#2850FF"/></linearGradient><linearGradient id="paint4_linear" x1="872.831" y1="94.4" x2="894.128" y2="95.603" gradientUnits="userSpaceOnUse"><stop stop-color="#4D8EFF"/><stop offset=".43" stop-color="#3F76FF"/><stop offset="1" stop-color="#2850FF"/></linearGradient><linearGradient id="paint5_linear" x1="1178.11" y1="238.389" x2="1254.46" y2="244.03" gradientUnits="userSpaceOnUse"><stop stop-color="#4D8EFF"/><stop offset=".43" stop-color="#3F76FF"/><stop offset="1" stop-color="#2850FF"/></linearGradient><linearGradient id="paint6_linear" x1="2858.49" y1="211.06" x2="2944.51" y2="211.06" gradientUnits="userSpaceOnUse"><stop stop-color="#4D8EFF"/><stop offset=".43" stop-color="#3F76FF"/><stop offset="1" stop-color="#2850FF"/></linearGradient><linearGradient id="paint7_linear" x1="2931.92" y1="302.322" x2="3023.86" y2="302.322" gradientUnits="userSpaceOnUse"><stop stop-color="#4D8EFF"/><stop offset=".43" stop-color="#3F76FF"/><stop offset="1" stop-color="#2850FF"/></linearGradient><linearGradient id="paint8_linear" x1="80.69" y1="134.649" x2="70.62" y2="134.649" gradientUnits="userSpaceOnUse"><stop stop-color="#FC9512"/><stop offset=".01" stop-color="#FC9612"/><stop offset=".68" stop-color="#FED319"/><stop offset="1" stop-color="#FFEB1C"/></linearGradient><linearGradient id="paint9_linear" x1="-21226.8" y1="367.855" x2="-21075.8" y2="428.477" gradientUnits="userSpaceOnUse"><stop stop-color="#FC9512"/><stop offset=".01" stop-color="#FC9612"/><stop offset=".68" stop-color="#FED319"/><stop offset="1" stop-color="#FFEB1C"/></linearGradient><linearGradient id="paint10_linear" x1="-16111.1" y1="251.1" x2="-16026.5" y2="279.153" gradientUnits="userSpaceOnUse"><stop stop-color="#FC9512"/><stop offset=".01" stop-color="#FC9612"/><stop offset=".68" stop-color="#FED319"/><stop offset="1" stop-color="#FFEB1C"/></linearGradient><linearGradient id="paint11_linear" x1="-10732.4" y1="593.749" x2="-10668.9" y2="598.027" gradientUnits="userSpaceOnUse"><stop stop-color="#FC9512"/><stop offset=".01" stop-color="#FC9612"/><stop offset=".68" stop-color="#FED319"/><stop offset="1" stop-color="#FFEB1C"/></linearGradient><linearGradient id="paint12_linear" x1="-5918.74" y1="514.639" x2="-5895.51" y2="515.994" gradientUnits="userSpaceOnUse"><stop stop-color="#FC9512"/><stop offset=".01" stop-color="#FC9612"/><stop offset=".68" stop-color="#FED319"/><stop offset="1" stop-color="#FFEB1C"/></linearGradient><linearGradient id="paint13_linear" x1="-9532.18" y1="745.229" x2="-9450.57" y2="751.332" gradientUnits="userSpaceOnUse"><stop stop-color="#FC9512"/><stop offset=".01" stop-color="#FC9612"/><stop offset=".68" stop-color="#FED319"/><stop offset="1" stop-color="#FFEB1C"/></linearGradient><linearGradient id="paint14_linear" x1="-28692.9" y1="956.256" x2="-28601" y2="956.256" gradientUnits="userSpaceOnUse"><stop stop-color="#FC9512"/><stop offset=".01" stop-color="#FC9612"/><stop offset=".68" stop-color="#FED319"/><stop offset="1" stop-color="#FFEB1C"/></linearGradient><linearGradient id="paint15_linear" x1="-29611.8" y1="1029.13" x2="-29513.7" y2="1029.13" gradientUnits="userSpaceOnUse"><stop stop-color="#FC9512"/><stop offset=".01" stop-color="#FC9612"/><stop offset=".68" stop-color="#FED319"/><stop offset="1" stop-color="#FFEB1C"/></linearGradient><linearGradient id="paint16_linear" x1=".04" y1="241.999" x2="9.52" y2="241.999" gradientUnits="userSpaceOnUse"><stop stop-color="#FF5C5C"/><stop offset=".3" stop-color="#F44444"/><stop offset=".93" stop-color="#D60707"/><stop offset="1" stop-color="#D30000"/></linearGradient><linearGradient id="paint17_linear" x1="-741.226" y1="1833.62" x2="-542.54" y2="1886.87" gradientUnits="userSpaceOnUse"><stop stop-color="#FF5C5C"/><stop offset=".3" stop-color="#F44444"/><stop offset=".93" stop-color="#D60707"/><stop offset="1" stop-color="#D30000"/></linearGradient><linearGradient id="paint18_linear" x1="-636.339" y1="2376.01" x2="-572.099" y2="2376.01" gradientUnits="userSpaceOnUse"><stop stop-color="#FF5C5C"/><stop offset=".3" stop-color="#F44444"/><stop offset=".93" stop-color="#D60707"/><stop offset="1" stop-color="#D30000"/></linearGradient><linearGradient id="paint19_linear" x1="-585.835" y1="2658.38" x2="-428.715" y2="2671.33" gradientUnits="userSpaceOnUse"><stop stop-color="#FF5C5C"/><stop offset=".3" stop-color="#F44444"/><stop offset=".93" stop-color="#D60707"/><stop offset="1" stop-color="#D30000"/></linearGradient><linearGradient id="paint20_linear" x1="-620.209" y1="2953.97" x2="-557.562" y2="2953.97" gradientUnits="userSpaceOnUse"><stop stop-color="#FF5C5C"/><stop offset=".3" stop-color="#F44444"/><stop offset=".93" stop-color="#D60707"/><stop offset="1" stop-color="#D30000"/></linearGradient><linearGradient id="paint21_linear" x1="296.967" y1="-46.753" x2="448.011" y2="-46.753" gradientUnits="userSpaceOnUse"><stop stop-color="#4D8EFF"/><stop offset=".43" stop-color="#3F76FF"/><stop offset="1" stop-color="#2850FF"/></linearGradient><linearGradient id="paint22_linear" x1="200.36" y1="436.489" x2="337.721" y2="422.451" gradientUnits="userSpaceOnUse"><stop stop-color="#4D8EFF"/><stop offset=".43" stop-color="#3F76FF"/><stop offset="1" stop-color="#2850FF"/></linearGradient><linearGradient id="paint23_linear" x1="197.607" y1="224.521" x2="423.693" y2="180.309" gradientUnits="userSpaceOnUse"><stop stop-color="#4D8EFF"/><stop offset=".43" stop-color="#3F76FF"/><stop offset="1" stop-color="#2850FF"/></linearGradient><linearGradient id="paint24_linear" x1="224.966" y1="300.505" x2="258.78" y2="300.505" gradientUnits="userSpaceOnUse"><stop stop-color="#4D8EFF"/><stop offset=".43" stop-color="#3F76FF"/><stop offset="1" stop-color="#2850FF"/></linearGradient><linearGradient id="paint25_linear" x1="278.177" y1="716.176" x2="412.09" y2="723.695" gradientUnits="userSpaceOnUse"><stop stop-color="#4D8EFF"/><stop offset=".43" stop-color="#3F76FF"/><stop offset="1" stop-color="#2850FF"/></linearGradient><linearGradient id="paint26_linear" x1="1787.85" y1="-106.861" x2="2024.7" y2="-106.861" gradientUnits="userSpaceOnUse"><stop stop-color="#FF5C5C"/><stop offset=".3" stop-color="#F44444"/><stop offset=".93" stop-color="#D60707"/><stop offset="1" stop-color="#D30000"/></linearGradient><linearGradient id="paint27_linear" x1="929.223" y1="392.699" x2="1044.73" y2="413.133" gradientUnits="userSpaceOnUse"><stop stop-color="#FF5C5C"/><stop offset=".3" stop-color="#F44444"/><stop offset=".93" stop-color="#D60707"/><stop offset="1" stop-color="#D30000"/></linearGradient><linearGradient id="paint28_linear" x1="1923.91" y1="39.199" x2="2347.23" y2="185.733" gradientUnits="userSpaceOnUse"><stop stop-color="#FF5C5C"/><stop offset=".3" stop-color="#F44444"/><stop offset=".93" stop-color="#D60707"/><stop offset="1" stop-color="#D30000"/></linearGradient><linearGradient id="paint29_linear" x1="1353.69" y1="252.328" x2="1636.88" y2="345.87" gradientUnits="userSpaceOnUse"><stop stop-color="#FF5C5C"/><stop offset=".3" stop-color="#F44444"/><stop offset=".93" stop-color="#D60707"/><stop offset="1" stop-color="#D30000"/></linearGradient><linearGradient id="paint30_linear" x1="1311.36" y1="553.996" x2="1414.77" y2="553.996" gradientUnits="userSpaceOnUse"><stop stop-color="#FF5C5C"/><stop offset=".3" stop-color="#F44444"/><stop offset=".93" stop-color="#D60707"/><stop offset="1" stop-color="#D30000"/></linearGradient><linearGradient id="paint31_linear" x1="1387.34" y1="207.457" x2="1505.62" y2="207.457" gradientUnits="userSpaceOnUse"><stop stop-color="#FF5C5C"/><stop offset=".3" stop-color="#F44444"/><stop offset=".93" stop-color="#D60707"/><stop offset="1" stop-color="#D30000"/></linearGradient><linearGradient id="paint32_linear" x1="327.69" y1="170.629" x2="315.59" y2="170.629" gradientUnits="userSpaceOnUse"><stop stop-color="#FF3EB9"/><stop offset=".04" stop-color="#FF44BC"/><stop offset=".7" stop-color="#FF98E3"/><stop offset="1" stop-color="#FFB9F2"/></linearGradient><linearGradient id="paint33_linear" x1="-15103" y1="-20858.5" x2="-15032.1" y2="-20846.3" gradientUnits="userSpaceOnUse"><stop stop-color="#FF3EB9"/><stop offset=".04" stop-color="#FF44BC"/><stop offset=".7" stop-color="#FF98E3"/><stop offset="1" stop-color="#FFB9F2"/></linearGradient><linearGradient id="paint34_linear" x1="-37536.2" y1="-34227.8" x2="-37274.6" y2="-34138.1" gradientUnits="userSpaceOnUse"><stop stop-color="#FF3EB9"/><stop offset=".04" stop-color="#FF44BC"/><stop offset=".7" stop-color="#FF98E3"/><stop offset="1" stop-color="#FFB9F2"/></linearGradient><linearGradient id="paint35_linear" x1="-24401.2" y1="-25787.5" x2="-24226.4" y2="-25728.7" gradientUnits="userSpaceOnUse"><stop stop-color="#FF3EB9"/><stop offset=".04" stop-color="#FF44BC"/><stop offset=".7" stop-color="#FF98E3"/><stop offset="1" stop-color="#FFB9F2"/></linearGradient><linearGradient id="paint36_linear" x1="-22995" y1="-38818.8" x2="-22930.7" y2="-38818.8" gradientUnits="userSpaceOnUse"><stop stop-color="#FF3EB9"/><stop offset=".04" stop-color="#FF44BC"/><stop offset=".7" stop-color="#FF98E3"/><stop offset="1" stop-color="#FFB9F2"/></linearGradient><linearGradient id="paint37_linear" x1="-24390.4" y1="-33096.6" x2="-24317.8" y2="-33096.6" gradientUnits="userSpaceOnUse"><stop stop-color="#FF3EB9"/><stop offset=".04" stop-color="#FF44BC"/><stop offset=".7" stop-color="#FF98E3"/><stop offset="1" stop-color="#FFB9F2"/></linearGradient><linearGradient id="paint38_linear" x1="287.92" y1="10.949" x2="295.82" y2="10.949" gradientUnits="userSpaceOnUse"><stop stop-color="#FDBF05"/><stop offset=".31" stop-color="#FEA712"/><stop offset=".96" stop-color="#FF6A34"/><stop offset="1" stop-color="#FF6636"/></linearGradient><linearGradient id="paint39_linear" x1="938.7" y1="480.391" x2="947.73" y2="480.391" gradientUnits="userSpaceOnUse"><stop stop-color="#FDBF05"/><stop offset=".31" stop-color="#FEA712"/><stop offset=".96" stop-color="#FF6A34"/><stop offset="1" stop-color="#FF6636"/></linearGradient><linearGradient id="paint40_linear" x1="1813.94" y1="492.145" x2="2000.58" y2="497.945" gradientUnits="userSpaceOnUse"><stop stop-color="#FDBF05"/><stop offset=".31" stop-color="#FEA712"/><stop offset=".96" stop-color="#FF6A34"/><stop offset="1" stop-color="#FF6636"/></linearGradient><linearGradient id="paint41_linear" x1="2139.82" y1="519.449" x2="2218.14" y2="519.449" gradientUnits="userSpaceOnUse"><stop stop-color="#FDBF05"/><stop offset=".31" stop-color="#FEA712"/><stop offset=".96" stop-color="#FF6A34"/><stop offset="1" stop-color="#FF6636"/></linearGradient><linearGradient id="paint42_linear" x1="2647.02" y1="103.489" x2="2952.09" y2="100.271" gradientUnits="userSpaceOnUse"><stop stop-color="#FDBF05"/><stop offset=".31" stop-color="#FEA712"/><stop offset=".96" stop-color="#FF6A34"/><stop offset="1" stop-color="#FF6636"/></linearGradient><linearGradient id="paint43_linear" x1="357.37" y1="213.279" x2="369.46" y2="213.279" gradientUnits="userSpaceOnUse"><stop stop-color="#008194"/><stop offset=".27" stop-color="#019994"/><stop offset=".85" stop-color="#05D696"/><stop offset="1" stop-color="#06E896"/></linearGradient><linearGradient id="paint44_linear" x1="685.596" y1="1422.86" x2="710.273" y2="1420.67" gradientUnits="userSpaceOnUse"><stop stop-color="#008194"/><stop offset=".27" stop-color="#019994"/><stop offset=".85" stop-color="#05D696"/><stop offset="1" stop-color="#06E896"/></linearGradient><linearGradient id="paint45_linear" x1="2573.08" y1="2296.6" x2="2809.5" y2="2269.21" gradientUnits="userSpaceOnUse"><stop stop-color="#008194"/><stop offset=".27" stop-color="#019994"/><stop offset=".85" stop-color="#05D696"/><stop offset="1" stop-color="#06E896"/></linearGradient><linearGradient id="paint46_linear" x1="2965.64" y1="3042.33" x2="3249.6" y2="2943.64" gradientUnits="userSpaceOnUse"><stop stop-color="#008194"/><stop offset=".27" stop-color="#019994"/><stop offset=".85" stop-color="#05D696"/><stop offset="1" stop-color="#06E896"/></linearGradient><linearGradient id="paint47_linear" x1="1715.6" y1="3933.7" x2="1740.09" y2="3933.7" gradientUnits="userSpaceOnUse"><stop stop-color="#008194"/><stop offset=".27" stop-color="#019994"/><stop offset=".85" stop-color="#05D696"/><stop offset="1" stop-color="#06E896"/></linearGradient><linearGradient id="paint48_linear" x1="3635.44" y1="3483.57" x2="3779.32" y2="3483.57" gradientUnits="userSpaceOnUse"><stop stop-color="#008194"/><stop offset=".27" stop-color="#019994"/><stop offset=".85" stop-color="#05D696"/><stop offset="1" stop-color="#06E896"/></linearGradient><linearGradient id="paint49_linear" x1="4589.06" y1="3312.34" x2="5130.67" y2="3043.28" gradientUnits="userSpaceOnUse"><stop stop-color="#008194"/><stop offset=".27" stop-color="#019994"/><stop offset=".85" stop-color="#05D696"/><stop offset="1" stop-color="#06E896"/></linearGradient><linearGradient id="paint50_linear" x1="1.95" y1="30.418" x2="13.81" y2="30.418" gradientUnits="userSpaceOnUse"><stop stop-color="#00EE98"/><stop offset=".28" stop-color="#00D685"/><stop offset=".87" stop-color="#009955"/><stop offset="1" stop-color="#008A49"/></linearGradient><linearGradient id="paint51_linear" x1="-75.027" y1="330.013" x2="-53.64" y2="331.211" gradientUnits="userSpaceOnUse"><stop stop-color="#00EE98"/><stop offset=".28" stop-color="#00D685"/><stop offset=".87" stop-color="#009955"/><stop offset="1" stop-color="#008A49"/></linearGradient><linearGradient id="paint52_linear" x1="-625.533" y1="62.271" x2="-450.642" y2="63.803" gradientUnits="userSpaceOnUse"><stop stop-color="#00EE98"/><stop offset=".28" stop-color="#00D685"/><stop offset=".87" stop-color="#009955"/><stop offset="1" stop-color="#008A49"/></linearGradient><linearGradient id="paint53_linear" x1="-743.884" y1="497.751" x2="-503.898" y2="545.345" gradientUnits="userSpaceOnUse"><stop stop-color="#00EE98"/><stop offset=".28" stop-color="#00D685"/><stop offset=".87" stop-color="#009955"/><stop offset="1" stop-color="#008A49"/></linearGradient><linearGradient id="paint54_linear" x1="-347.548" y1="779.486" x2="-322.248" y2="779.486" gradientUnits="userSpaceOnUse"><stop stop-color="#00EE98"/><stop offset=".28" stop-color="#00D685"/><stop offset=".87" stop-color="#009955"/><stop offset="1" stop-color="#008A49"/></linearGradient><linearGradient id="paint55_linear" x1="-883.772" y1="476.89" x2="-744.378" y2="476.89" gradientUnits="userSpaceOnUse"><stop stop-color="#00EE98"/><stop offset=".28" stop-color="#00D685"/><stop offset=".87" stop-color="#009955"/><stop offset="1" stop-color="#008A49"/></linearGradient><linearGradient id="paint56_linear" x1="-1287.77" y1="305.899" x2="-777.842" y2="404.834" gradientUnits="userSpaceOnUse"><stop stop-color="#00EE98"/><stop offset=".28" stop-color="#00D685"/><stop offset=".87" stop-color="#009955"/><stop offset="1" stop-color="#008A49"/></linearGradient><clipPath id="clip0"><path fill="#fff" transform="translate(0 -.001)" d="M0 0h369.4v272.9H0z"/></clipPath></defs></svg>